<?xml version="1.0" encoding="UTF-8"?><svg xmlns="http://www.w3.org/2000/svg" viewBox="0 0 431.65 353.12"><defs><style>.e{fill:#b1c3d3;}.f{fill:#2c2c2c;}</style></defs><g id="a"/><g id="b"><g id="c"><g id="d"><g><polygon class="e" points="312.11 343.12 12.44 10 216.35 10 421.65 235.64 421.65 343.12 312.11 343.12"/><path class="f" d="M211.93,20l199.71,219.51v93.62h-95.08L34.89,20H211.93M217.22,0H8.07C1.1,0-2.58,8.25,2.08,13.44L305.26,350.46c1.53,1.7,3.7,2.67,5.99,2.67h112.35c4.45,0,8.05-3.6,8.05-8.05v-110.19c0-2-.75-3.94-2.1-5.42L223.17,2.63c-1.53-1.68-3.69-2.63-5.96-2.63h0Z"/></g><g><polygon class="e" points="12.61 343.12 140.99 202.02 271.24 343.12 12.61 343.12"/><path class="f" d="M149.83,207.17h0m-8.78,9.65l107.36,116.3H35.23l105.81-116.3m-.06-25.74c-2.18,0-4.35,.88-5.95,2.63L2.23,339.68c-4.7,5.16-1.03,13.45,5.95,13.45H275.72c7.01,0,10.66-8.34,5.91-13.49L146.89,193.67c-1.59-1.72-3.75-2.59-5.91-2.59h0Z"/></g><g><polygon class="e" points="259.55 10 421.65 10 421.65 188.03 259.55 10"/><path class="f" d="M411.65,20V162.19L282.18,20h129.47M423.61,0H255.11c-6.98,0-10.64,8.29-5.94,13.45l168.5,185.06c1.66,1.83,3.79,2.64,5.88,2.64,4.12,0,8.1-3.18,8.1-8.06V8.04c0-4.44-3.6-8.04-8.04-8.04h0Z"/></g></g></g></g></svg>