<?xml version="1.0" encoding="UTF-8"?><svg xmlns="http://www.w3.org/2000/svg" viewBox="0 0 441.65 353.12"><defs><style>.e{fill:#b1c3d3;}.f{fill:#2c2c2c;}</style></defs><g id="a"/><g id="b"><g id="c"><g id="d"><g><polygon class="e" points="319.89 348.12 11.22 5 228.57 5 436.65 233.7 436.65 348.12 319.89 348.12"/><path class="f" d="M226.36,10l205.29,225.64v107.49h-109.53L22.45,10H226.36m4.42-10H0L317.66,353.12h123.99v-121.35L230.78,0h0Z"/></g><g><polygon class="e" points="11.31 348.12 150.97 194.62 292.67 348.12 11.31 348.12"/><path class="f" d="M151,202.02l130.25,141.1H22.62L151,202.02m-.05-14.8L0,353.12H304.09L150.94,187.22h0Z"/></g><g><polygon class="e" points="258.24 5 436.65 5 436.65 200.95 258.24 5"/><path class="f" d="M431.65,10V188.03L269.55,10h162.1m10-10H246.92l194.73,213.86V0h0Z"/></g></g></g></g></svg>